<svg xmlns="http://www.w3.org/2000/svg" width="14" height="12" viewBox="0 0 14 12"><path fill="#666" d="M14 1.533A5.57 5.57 0 0 1 12.353 2 2.96 2.96 0 0 0 13.616.358c-.563.345-1.18.59-1.824.72A2.826 2.826 0 0 0 9.69.144c-.767.005-1.5.32-2.038.877a2.982 2.982 0 0 0-.834 2.09c0 .229.027.455.076.678A8.065 8.065 0 0 1 .974.686c-.763 1.356-.376 3.08.888 3.963a2.79 2.79 0 0 1-1.301-.371v.037c-.006 1.406.957 2.622 2.305 2.91a2.79 2.79 0 0 1-1.296.052 2.89 2.89 0 0 0 2.683 2.061 5.649 5.649 0 0 1-3.567 1.27.896.896 0 0 1-.686-.04 7.933 7.933 0 0 0 4.4 1.335 8.093 8.093 0 0 0 5.817-2.48 8.42 8.42 0 0 0 2.356-5.965c0-.129 0-.257-.008-.384A5.927 5.927 0 0 0 14 1.533z"/></svg>